<svg width="22" height="22" viewBox="0 0 22 22" fill="none" xmlns="http://www.w3.org/2000/svg">
<path d="M11 20.167C15.5563 20.167 19.25 16.4733 19.25 11.917C19.25 7.36064 15.5563 3.66699 11 3.66699C6.44365 3.66699 2.75 7.36064 2.75 11.917C2.75 16.4733 6.44365 20.167 11 20.167Z" stroke="#686767" stroke-width="1.5" stroke-linecap="round"/>
<path d="M4.58333 17.417L2.75 19.2503M17.4167 17.417L19.25 19.2503" stroke="#686767" stroke-width="1.5" stroke-linecap="round" stroke-linejoin="round"/>
<path d="M17.4168 3.27223L17.9627 2.99929C18.7376 2.61188 19.0286 2.65622 19.6446 3.27223C20.2606 3.88823 20.305 4.17931 19.9175 4.95413L19.6446 5.5M4.5835 3.27223L4.03762 2.99929C3.2628 2.61188 2.97172 2.65622 2.35572 3.27223C1.73971 3.88823 1.69537 4.17931 2.08279 4.95413L2.35572 5.5" stroke="#686767" stroke-width="1.5" stroke-linecap="round"/>
<path d="M11 8.70801V12.3747L12.8333 14.208" stroke="#686767" stroke-width="1.5" stroke-linecap="round" stroke-linejoin="round"/>
<path d="M11 3.20801V1.83301" stroke="#686767" stroke-width="1.5" stroke-linecap="round" stroke-linejoin="round"/>
<path d="M9.1665 1.83301H12.8332" stroke="#686767" stroke-width="1.5" stroke-linecap="round" stroke-linejoin="round"/>
</svg>
