<svg width="40" height="40" viewBox="0 0 40 40" fill="none" xmlns="http://www.w3.org/2000/svg">
<g id="back">
<rect id="Rectangle" x="-0.5" y="0.5" width="39" height="39" rx="9.5" transform="matrix(-1 0 0 1 39 0)" fill="white" stroke="#F1F4F7"/>
<path id="Icon" fill-rule="evenodd" clip-rule="evenodd" d="M13 18.9999H24.865L21.232 14.6399C20.878 14.2159 20.936 13.5849 21.36 13.2319C21.785 12.8779 22.415 12.9359 22.768 13.3599L27.768 19.3599C27.807 19.4069 27.827 19.4619 27.856 19.5139C27.88 19.5559 27.909 19.5919 27.927 19.6379C27.972 19.7529 27.999 19.8739 27.999 19.9959C27.999 19.9969 28 19.9989 28 19.9999C28 20.0009 27.999 20.0029 27.999 20.0039C27.999 20.1259 27.972 20.2469 27.927 20.3619C27.909 20.4079 27.88 20.4439 27.856 20.4859C27.827 20.5379 27.807 20.5929 27.768 20.6399L22.768 26.6399C22.57 26.8769 22.286 26.9999 22 26.9999C21.774 26.9999 21.547 26.9239 21.36 26.7679C20.936 26.4149 20.878 25.7839 21.232 25.3599L24.865 20.9999H13C12.448 20.9999 12 20.5519 12 19.9999C12 19.4479 12.448 18.9999 13 18.9999Z" fill="#222B45"/>
</g>
</svg>
