<svg width="24" height="25" viewBox="0 0 24 25" fill="none" xmlns="http://www.w3.org/2000/svg">
<path d="M21.9329 12.1775C21.8306 9.81496 21.4218 6.7007 21.1151 4.55294C20.9107 3.15689 19.7862 2.08301 18.3552 2.08301H5.67991C4.24883 2.08301 3.12442 3.15689 2.91998 4.55294C2.61332 6.80809 2.30666 9.81496 2.10222 12.1775C2 14.4327 2 17.5469 2 19.8021C2 21.3055 3.12442 22.4868 4.55549 22.5942C6.70211 22.809 9.66648 22.9163 11.9153 22.9163C14.1642 22.9163 17.1285 22.7016 19.2751 22.5942C20.7062 22.4868 21.8306 21.3055 21.8306 19.8021C22.0351 17.5469 22.0351 14.4327 21.9329 12.1775ZM12.0175 12.2849C9.35982 12.2849 7.11099 10.0297 7.11099 7.13026C7.11099 6.7007 7.41765 6.27115 7.92875 6.27115C8.43985 6.27115 8.7465 6.7007 8.7465 7.13026C8.7465 9.06325 10.2798 10.5667 12.0175 10.5667C13.7553 10.5667 15.2886 8.95586 15.2886 7.13026C15.2886 6.7007 15.5952 6.27115 16.1063 6.27115C16.6174 6.27115 16.9241 6.59332 16.9241 7.13026C16.9241 9.92235 14.6753 12.2849 12.0175 12.2849Z" fill="#848586"/>
</svg>
