<svg width="20" height="20" viewBox="0 0 20 20" fill="none" xmlns="http://www.w3.org/2000/svg">
<g id="Bag">
<path id="Vector" d="M18.2767 9.7421C18.1915 7.85207 17.8508 5.36066 17.5953 3.64245C17.4249 2.52561 16.4879 1.6665 15.2953 1.6665H4.73261C3.54004 1.6665 2.60303 2.52561 2.43266 3.64245C2.17711 5.44657 1.92156 7.85207 1.7512 9.7421C1.66602 11.5462 1.66602 14.0376 1.66602 15.8418C1.66602 17.0445 2.60303 17.9895 3.79559 18.0754C5.58444 18.2473 8.05475 18.3332 9.92878 18.3332C11.8028 18.3332 14.2731 18.1613 16.062 18.0754C17.2545 17.9895 18.1915 17.0445 18.1915 15.8418C18.3619 14.0376 18.3619 11.5462 18.2767 9.7421ZM10.014 9.82802C7.7992 9.82802 5.92517 8.02389 5.92517 5.7043C5.92517 5.36066 6.18072 5.01702 6.60664 5.01702C7.03255 5.01702 7.2881 5.36066 7.2881 5.7043C7.2881 7.2507 8.56585 8.45344 10.014 8.45344C11.4621 8.45344 12.7398 7.16478 12.7398 5.7043C12.7398 5.36066 12.9954 5.01702 13.4213 5.01702C13.8472 5.01702 14.1028 5.27475 14.1028 5.7043C14.1028 7.93798 12.2287 9.82802 10.014 9.82802Z" fill="#FF746B"/>
</g>
</svg>
