<svg width="20" height="20" viewBox="0 0 20 20" fill="none" xmlns="http://www.w3.org/2000/svg">
<g id="calendar-02">
<path id="Vector" d="M9.16602 10.833H13.3327M6.66602 10.833H6.6735M10.8327 14.1663H6.66602M13.3327 14.1663H13.3252" stroke="#686767" stroke-width="1.5" stroke-linecap="round" stroke-linejoin="round"/>
<path id="Vector_2" d="M15 1.66699V3.33366M5 1.66699V3.33366" stroke="#686767" stroke-width="1.5" stroke-linecap="round" stroke-linejoin="round"/>
<path id="Vector_3" d="M2.08398 10.2027C2.08398 6.57162 2.08398 4.75607 3.12742 3.62803C4.17085 2.5 5.85023 2.5 9.20898 2.5H10.7923C14.1511 2.5 15.8305 2.5 16.8739 3.62803C17.9173 4.75607 17.9173 6.57162 17.9173 10.2027V10.6307C17.9173 14.2617 17.9173 16.0773 16.8739 17.2053C15.8305 18.3333 14.1511 18.3333 10.7923 18.3333H9.20898C5.85023 18.3333 4.17085 18.3333 3.12742 17.2053C2.08398 16.0773 2.08398 14.2617 2.08398 10.6307V10.2027Z" stroke="#686767" stroke-width="1.5" stroke-linecap="round" stroke-linejoin="round"/>
<path id="Vector_4" d="M2.5 6.66699H17.5" stroke="#686767" stroke-width="1.5" stroke-linecap="round" stroke-linejoin="round"/>
</g>
</svg>
