<svg width="59" height="59" viewBox="0 0 59 59" fill="none" xmlns="http://www.w3.org/2000/svg">
<g id="Group 2640">
<circle id="Ellipse 2331" cx="29.5" cy="29.5" r="29.5" fill="#FF0000" fill-opacity="0.15"/>
<path id="Vector" d="M37.5 24.5L36.8803 34.5251C36.7219 37.0864 36.6428 38.3671 36.0008 39.2879C35.6833 39.7431 35.2747 40.1273 34.8007 40.416C33.8421 41 32.559 41 29.9927 41C27.4231 41 26.1383 41 25.179 40.4149C24.7048 40.1257 24.296 39.7408 23.9787 39.2848C23.3369 38.3626 23.2594 37.0801 23.1046 34.5152L22.5 24.5" stroke="#DE3838" stroke-width="1.5" stroke-linecap="round"/>
<path id="Vector_2" d="M27 30.7344H33" stroke="#DE3838" stroke-width="1.5" stroke-linecap="round"/>
<path id="Vector_3" d="M28.5 34.6543H31.5" stroke="#DE3838" stroke-width="1.5" stroke-linecap="round"/>
<path id="Vector_4" d="M21 24.5H39M34.0555 24.5L33.3729 23.0917C32.9194 22.1563 32.6926 21.6885 32.3015 21.3968C32.2148 21.3321 32.1229 21.2745 32.0268 21.2247C31.5937 21 31.0739 21 30.0343 21C28.9686 21 28.4358 21 27.9955 21.2341C27.8979 21.286 27.8048 21.3459 27.7171 21.4132C27.3215 21.7167 27.1004 22.2015 26.6584 23.1713L26.0527 24.5" stroke="#DE3838" stroke-width="1.5" stroke-linecap="round"/>
</g>
</svg>
