<svg width="20" height="20" viewBox="0 0 20 20" fill="none" xmlns="http://www.w3.org/2000/svg">
<g id="delete-03">
<path id="Vector" d="M16.25 4.5835L15.7336 12.9377C15.6016 15.0722 15.5357 16.1394 15.0007 16.9067C14.7361 17.2861 14.3956 17.6062 14.0006 17.8468C13.2017 18.3335 12.1325 18.3335 9.99392 18.3335C7.8526 18.3335 6.78192 18.3335 5.98254 17.8459C5.58733 17.6049 5.24667 17.2842 4.98223 16.9042C4.4474 16.1357 4.38287 15.0669 4.25384 12.9295L3.75 4.5835" stroke="#FF746B" stroke-width="1.5" stroke-linecap="round"/>
<path id="Vector_2" d="M7.5 9.7793H12.5" stroke="#FF746B" stroke-width="1.5" stroke-linecap="round"/>
<path id="Vector_3" d="M8.75 13.0454H11.25" stroke="#FF746B" stroke-width="1.5" stroke-linecap="round"/>
<path id="Vector_4" d="M2.5 4.58317H17.5M13.3796 4.58317L12.8107 3.40961C12.4328 2.63005 12.2438 2.24027 11.9179 1.99718C11.8457 1.94325 11.7691 1.89529 11.689 1.85375C11.3281 1.6665 10.8949 1.6665 10.0286 1.6665C9.1405 1.6665 8.6965 1.6665 8.32957 1.8616C8.24826 1.90485 8.17066 1.95475 8.09758 2.01081C7.76787 2.26375 7.5837 2.6678 7.21535 3.47589L6.71061 4.58317" stroke="#FF746B" stroke-width="1.5" stroke-linecap="round"/>
</g>
</svg>
