<svg width="23" height="24" viewBox="0 0 23 24" fill="none" xmlns="http://www.w3.org/2000/svg">
<path d="M16.8641 9C18.7466 9.0736 20.345 10.6169 20.2936 12.6843C20.2816 13.1653 20.1111 13.7598 19.7702 14.9488C18.9498 17.8104 17.5709 20.2944 14.4821 20.8904C13.9142 21 13.2753 21 11.9975 21H10.2953C9.01749 21 8.37856 21 7.81076 20.8904C4.72187 20.2944 3.34302 17.8104 2.52258 14.9488C2.18167 13.7598 2.01121 13.1653 1.99925 12.6843C1.94784 10.6169 3.54622 9.0736 5.42869 9" stroke="#FF746B" stroke-width="1.5" stroke-linecap="round"/>
<path d="M11.1465 14V3M11.1465 14C10.5059 14 9.30904 12.0057 8.85938 11.5M11.1465 14C11.787 14 12.9839 12.0057 13.4336 11.5" stroke="#FF746B" stroke-width="1.5" stroke-linecap="round" stroke-linejoin="round"/>
</svg>
