<svg width="30" height="30" viewBox="0 0 30 30" fill="none" xmlns="http://www.w3.org/2000/svg">
<path d="M2.5 22.5C2.5 20.5745 2.5 19.6116 2.93341 18.9044C3.17592 18.5086 3.50866 18.1759 3.90441 17.9334C4.61167 17.5 5.57445 17.5 7.5 17.5C9.42555 17.5 10.3883 17.5 11.0956 17.9334C11.4913 18.1759 11.8241 18.5086 12.0666 18.9044C12.5 19.6116 12.5 20.5745 12.5 22.5C12.5 24.4255 12.5 25.3884 12.0666 26.0956C11.8241 26.4914 11.4913 26.8241 11.0956 27.0666C10.3883 27.5 9.42555 27.5 7.5 27.5C5.57445 27.5 4.61167 27.5 3.90441 27.0666C3.50866 26.8241 3.17592 26.4914 2.93341 26.0956C2.5 25.3884 2.5 24.4255 2.5 22.5Z" stroke="white" stroke-width="1.5"/>
<path d="M17.5 22.5C17.5 20.5745 17.5 19.6116 17.9334 18.9044C18.1759 18.5086 18.5086 18.1759 18.9044 17.9334C19.6116 17.5 20.5745 17.5 22.5 17.5C24.4255 17.5 25.3884 17.5 26.0956 17.9334C26.4914 18.1759 26.8241 18.5086 27.0666 18.9044C27.5 19.6116 27.5 20.5745 27.5 22.5C27.5 24.4255 27.5 25.3884 27.0666 26.0956C26.8241 26.4914 26.4914 26.8241 26.0956 27.0666C25.3884 27.5 24.4255 27.5 22.5 27.5C20.5745 27.5 19.6116 27.5 18.9044 27.0666C18.5086 26.8241 18.1759 26.4914 17.9334 26.0956C17.5 25.3884 17.5 24.4255 17.5 22.5Z" stroke="white" stroke-width="1.5"/>
<path d="M2.5 7.5C2.5 5.57445 2.5 4.61167 2.93341 3.90441C3.17592 3.50866 3.50866 3.17592 3.90441 2.93341C4.61167 2.5 5.57445 2.5 7.5 2.5C9.42555 2.5 10.3883 2.5 11.0956 2.93341C11.4913 3.17592 11.8241 3.50866 12.0666 3.90441C12.5 4.61167 12.5 5.57445 12.5 7.5C12.5 9.42555 12.5 10.3883 12.0666 11.0956C11.8241 11.4913 11.4913 11.8241 11.0956 12.0666C10.3883 12.5 9.42555 12.5 7.5 12.5C5.57445 12.5 4.61167 12.5 3.90441 12.0666C3.50866 11.8241 3.17592 11.4913 2.93341 11.0956C2.5 10.3883 2.5 9.42555 2.5 7.5Z" stroke="white" stroke-width="1.5"/>
<path d="M17.5 7.5C17.5 5.57445 17.5 4.61167 17.9334 3.90441C18.1759 3.50866 18.5086 3.17592 18.9044 2.93341C19.6116 2.5 20.5745 2.5 22.5 2.5C24.4255 2.5 25.3884 2.5 26.0956 2.93341C26.4914 3.17592 26.8241 3.50866 27.0666 3.90441C27.5 4.61167 27.5 5.57445 27.5 7.5C27.5 9.42555 27.5 10.3883 27.0666 11.0956C26.8241 11.4913 26.4914 11.8241 26.0956 12.0666C25.3884 12.5 24.4255 12.5 22.5 12.5C20.5745 12.5 19.6116 12.5 18.9044 12.0666C18.5086 11.8241 18.1759 11.4913 17.9334 11.0956C17.5 10.3883 17.5 9.42555 17.5 7.5Z" stroke="white" stroke-width="1.5"/>
</svg>
