<svg width="18" height="17" viewBox="0 0 18 17" fill="none" xmlns="http://www.w3.org/2000/svg">
<path id="search icon" fill-rule="evenodd" clip-rule="evenodd" d="M15.7518 7.2729C15.7518 4.26472 13.2266 1.81836 10.1215 1.81836C7.0163 1.81836 4.49107 4.26472 4.49107 7.2729C4.49107 10.2811 7.0163 12.7275 10.1215 12.7275C13.2266 12.7275 15.7518 10.2811 15.7518 7.2729ZM1.01271 14.8118L4.19857 11.7245C3.21043 10.4936 2.61455 8.95091 2.61455 7.27273C2.61455 3.26273 5.98246 0 10.1217 0C14.261 0 17.6289 3.26273 17.6289 7.27273C17.6289 11.2827 14.261 14.5455 10.1217 14.5455C8.38945 14.5455 6.79699 13.9682 5.5264 13.0109L2.3396 16.0973C2.15662 16.2745 1.91638 16.3636 1.67616 16.3636C1.43593 16.3636 1.1957 16.2745 1.01271 16.0973C0.645794 15.7418 0.645794 15.1673 1.01271 14.8118Z" fill="#979797"/>
</svg>
