<svg width="41" height="40" viewBox="0 0 41 40" fill="none" xmlns="http://www.w3.org/2000/svg">
<g id="Group 810">
<rect id="Rectangle" x="0.5" y="0.5" width="40" height="39" rx="9.5" fill="white" stroke="#F1F4F7"/>
<path id="search icon" fill-rule="evenodd" clip-rule="evenodd" d="M12.5277 18.8893C12.5277 15.2127 15.5924 12.2227 19.361 12.2227C23.1295 12.2227 26.1942 15.2127 26.1942 18.8893C26.1942 22.566 23.1295 25.556 19.361 25.556C15.5924 25.556 12.5277 22.566 12.5277 18.8893ZM30.416 28.1033L26.5496 24.33C27.7488 22.8256 28.472 20.94 28.472 18.8889C28.472 13.9878 24.3846 10 19.361 10C14.3374 10 10.25 13.9878 10.25 18.8889C10.25 23.79 14.3374 27.7778 19.361 27.7778C21.4633 27.7778 23.396 27.0722 24.938 25.9022L28.8057 29.6744C29.0277 29.8911 29.3193 30 29.6108 30C29.9024 30 30.1939 29.8911 30.416 29.6744C30.8613 29.24 30.8613 28.5378 30.416 28.1033Z" fill="#686767"/>
</g>
</svg>
