<svg width="25" height="24" viewBox="0 0 25 24" fill="none" xmlns="http://www.w3.org/2000/svg">
<path d="M17.5 20C18.6046 20 19.5 19.1046 19.5 18C19.5 16.8954 18.6046 16 17.5 16C16.3954 16 15.5 16.8954 15.5 18C15.5 19.1046 16.3954 20 17.5 20Z" stroke="white" stroke-width="1.5"/>
<path d="M7.5 20C8.60457 20 9.5 19.1046 9.5 18C9.5 16.8954 8.60457 16 7.5 16C6.39543 16 5.5 16.8954 5.5 18C5.5 19.1046 6.39543 20 7.5 20Z" stroke="white" stroke-width="1.5"/>
<path d="M11.5 17H15.5M14 7H14.9429C16.2533 7 16.9086 7 17.4641 7.31452C18.0196 7.62904 18.39 8.20972 19.1308 9.37107C19.6502 10.1854 20.1955 10.7765 20.9622 11.3024C21.7341 11.8318 22.1012 12.0906 22.3049 12.506C22.5 12.9038 22.5 13.375 22.5 14.3173C22.5 15.5596 22.5 16.1808 22.151 16.5755C22.136 16.5925 22.1207 16.609 22.1049 16.625C21.7375 17 21.1594 17 20.003 17H19.5" stroke="white" stroke-width="1.5" stroke-linecap="round" stroke-linejoin="round"/>
<path d="M13.5 7L14.4942 9.48556C14.9813 10.7034 15.2249 11.3123 15.7328 11.6561C16.2407 12 16.8965 12 18.2081 12H21.5" stroke="white" stroke-width="1.5" stroke-linecap="round" stroke-linejoin="round"/>
<path d="M5.36957 17C4.01684 17 3.34048 17 2.92024 16.5607C2.5 16.1213 2.5 15.4142 2.5 14V7C2.5 5.58579 2.5 4.87868 2.92024 4.43934C3.34048 4 4.01684 4 5.36957 4H10.6304C11.9832 4 12.6595 4 13.0798 4.43934C13.5 4.87868 13.5 5.58579 13.5 7V17H9.19565" stroke="white" stroke-width="1.5" stroke-linecap="round" stroke-linejoin="round"/>
</svg>
